HIERARCHY
ROOT Hips
{
	OFFSET -3.958830 18.904000 13.208200
	CHANNELS 6 Xposition Yposition Zposition Zrotation Yrotation Xrotation 
	JOINT LHipJoint
	{
		OFFSET 0.000000 0.000000 0.000000
		CHANNELS 3 Zrotation Yrotation Xrotation
		JOINT LeftUpLeg
		{
			OFFSET 1.800000 -1.400000 0.085000
			CHANNELS 3 Zrotation Yrotation Xrotation
			JOINT LeftLeg
			{
				OFFSET 2.215000 -6.000000 0.000000
				CHANNELS 3 Zrotation Yrotation Xrotation
				JOINT LeftFoot
				{
					OFFSET 2.500000 -6.900000 0.000000
					CHANNELS 3 Zrotation Yrotation Xrotation
					JOINT LeftToeBase
					{
						OFFSET 0.200000 -0.500000 1.950000
						CHANNELS 3 Zrotation Yrotation Xrotation
						End Site
						{
							OFFSET 0.000000 0.000000 0.000000
						}
					}
				}
			}
		}
	}
	JOINT RHipJoint
	{
		OFFSET 0.000000 0.000000 0.000000
		CHANNELS 3 Zrotation Yrotation Xrotation
		JOINT RightUpLeg
		{
			OFFSET -1.800000 -1.400000 0.085000
			CHANNELS 3 Zrotation Yrotation Xrotation
			JOINT RightLeg
			{
				OFFSET -2.215000 -6.000000 0.000000
				CHANNELS 3 Zrotation Yrotation Xrotation
				JOINT RightFoot
				{
					OFFSET -2.500000 -6.900000 0.000000
					CHANNELS 3 Zrotation Yrotation Xrotation
					JOINT RightToeBase
					{
						OFFSET -0.200000 -0.500000 1.950000
						CHANNELS 3 Zrotation Yrotation Xrotation
						End Site
						{
							OFFSET 0.000000 0.000000 0.000000
						}
					}
				}
			}
		}
	}
	JOINT LowerBack
	{
		OFFSET 0.000000 0.000000 0.000000
		CHANNELS 3 Zrotation Yrotation Xrotation
		JOINT Spine
		{
			OFFSET -0.087000 1.940000 -0.288900
			CHANNELS 3 Zrotation Yrotation Xrotation
			JOINT Spine1
			{
				OFFSET 0.000000 1.950000 0.060000
				CHANNELS 3 Zrotation Yrotation Xrotation
				JOINT Neck
				{
					OFFSET 0.000000 0.000000 0.000000
					CHANNELS 3 Zrotation Yrotation Xrotation
					JOINT Neck1
					{
						OFFSET 0.000000 1.600000 0.340000
						CHANNELS 3 Zrotation Yrotation Xrotation
						JOINT Head
						{
							OFFSET 0.000000 1.667000 -0.240000
							CHANNELS 3 Zrotation Yrotation Xrotation
							End Site
							{
								OFFSET 0.000000 0.000000 0.000000
							}
						}
					}
				}
				JOINT LeftShoulder
				{
					OFFSET 0.000000 0.000000 0.000000
					CHANNELS 3 Zrotation Yrotation Xrotation
					JOINT LeftArm
					{
						OFFSET 2.700000 1.550000 -0.730000
						CHANNELS 3 Zrotation Yrotation Xrotation
						JOINT LeftForeArm
						{
							OFFSET 5.450000 0.000000 0.000000
							CHANNELS 3 Zrotation Yrotation Xrotation
							JOINT LeftHand
							{
								OFFSET 3.450000 0.000000 0.000000
								CHANNELS 3 Zrotation Yrotation Xrotation
								JOINT LeftHandIndex1
								{
									OFFSET 0.750000 0.000000 0.000000
									CHANNELS 3 Zrotation Yrotation Xrotation
									End Site
									{
										OFFSET 0.000000 0.000000 0.000000
									}
								}
							}
						}
					}
				}
				JOINT RightShoulder
				{
					OFFSET 0.000000 0.000000 0.000000
					CHANNELS 3 Zrotation Yrotation Xrotation
					JOINT RightArm
					{
						OFFSET -2.700000 1.550000 -0.730000
						CHANNELS 3 Zrotation Yrotation Xrotation
						JOINT RightForeArm
						{
							OFFSET -5.450000 0.000000 0.000000
							CHANNELS 3 Zrotation Yrotation Xrotation
							JOINT RightHand
							{
								OFFSET -3.450000 0.000000 0.000000
								CHANNELS 3 Zrotation Yrotation Xrotation
								JOINT RightHandIndex1
								{
									OFFSET -0.750000 0.000000 0.000000
									CHANNELS 3 Zrotation Yrotation Xrotation
									End Site
									{
										OFFSET 0.000000 0.000000 0.000000
									}
								}
							}
						}
					}
				}
			}
		}
	}
}
MOTION
Frames: 12
Frame Time: 0.016667
0.676300 16.270470 -2.085740 0.629944 -8.470943 -3.039730 -15.366365 11.898856 4.336502 11.394042 -10.351349 -26.527352 -19.653594 17.668797 45.542307 0.397226 11.120378 1.038656 0.283870 -0.217880 0.039480 18.443586 -8.207215 4.192328 -8.718687 5.806660 -51.649681 2.597718 -10.528074 47.111699 -0.830428 -6.974676 2.201792 -0.041690 0.674280 0.250160 -3.563237 -3.826217 -8.945207 11.799789 -11.232534 34.809504 -6.074117 -6.656369 -1.178969 2.624928 -8.936951 -9.784336 -18.896720 9.324011 28.089894 -7.501530 4.977290 -15.835930 -26.985684 -11.682811 1.668847 -31.938846 -5.691373 -10.007173 -26.914277 -58.319428 9.432143 -3.687581 2.963286 0.955090 0.301960 -0.191880 0.364100 22.085862 14.720647 8.333048 39.088904 -5.711601 -14.621857 30.399823 45.442198 7.655565 1.494762 -1.391629 -0.538230 0.582870 0.207100 -0.310020 
0.675800 16.248770 -2.084240 0.043696 -8.069255 -4.413754 -15.369099 11.946627 4.303714 11.807335 -10.440572 -26.000352 -18.820217 17.929698 47.410990 0.534084 11.283380 0.958185 0.333810 -0.134070 0.076680 18.436466 -8.167596 4.226865 -9.447599 5.862932 -51.266094 3.227970 -11.980758 51.106219 -1.065876 -7.798199 1.938408 -0.054110 0.571960 0.268360 -3.546572 -3.952582 -9.035614 12.571557 -11.670119 36.503749 -6.276702 -6.649837 -2.050324 3.170514 -8.692243 -10.264146 -19.507892 9.367834 31.161684 -8.052280 4.937660 -17.077490 -27.905255 -13.231453 1.876779 -33.410459 -6.888933 -10.103125 -18.922262 -50.874491 4.341291 -3.589668 2.907298 0.962990 0.234410 -0.099290 0.365280 21.881082 16.202230 8.744745 41.544837 -4.738662 -15.336226 29.275095 45.190468 7.037875 1.550929 -1.356250 -0.446420 0.532580 0.156400 -0.289250 
0.673470 16.221970 -2.093300 -0.399880 -8.363448 -6.863929 -15.392270 12.000327 4.264241 12.231782 -10.411296 -25.063674 -18.070953 18.877970 50.456264 0.712128 11.746635 0.782382 0.396360 -0.037600 0.139680 18.412270 -8.034018 4.329712 -10.675869 6.575855 -50.610759 3.633887 -14.154714 58.232553 -1.471555 -9.220459 1.510453 -0.046910 0.459090 0.273680 -3.480983 -4.171350 -9.214927 12.726707 -11.997811 39.175964 -6.094604 -6.716308 -3.146707 3.672618 -8.045006 -11.285974 -20.173186 10.402244 36.904017 -9.370270 5.528530 -17.906070 -30.888881 -16.479312 2.912393 -32.642449 -7.005206 -9.156416 -10.339342 -38.247110 0.292761 -3.488388 2.802665 1.000570 0.163440 0.007640 0.362120 23.841635 19.382406 9.129134 41.669429 -2.269771 -15.435613 28.859804 45.154621 6.748286 1.596110 -1.308861 -0.377630 0.508660 0.103530 -0.286480 
0.667280 16.172140 -2.097690 -0.623594 -9.031365 -8.415065 -15.413561 11.897109 4.237450 12.752299 -9.985688 -25.152552 -17.451791 20.311885 53.577469 0.971620 12.242641 0.608082 0.500860 0.104540 0.248920 18.417483 -7.798234 4.567287 -12.541063 7.923323 -50.791889 4.410380 -16.972855 66.154573 -1.952049 -10.874690 1.057340 -0.024270 0.314430 0.276660 -3.474279 -4.196216 -9.462788 13.004938 -11.865763 40.042761 -6.316782 -6.581148 -3.316263 4.135169 -6.397598 -12.741825 -18.123740 11.037618 43.073688 -10.656810 7.109940 -16.419410 -33.077968 -19.623688 4.721591 -31.243398 -5.234549 -7.851550 -6.850504 -29.204208 -0.634463 -3.377637 2.814080 0.981030 0.104250 0.107380 0.375290 25.013024 22.261374 9.198450 42.863085 0.801894 -15.493453 29.491301 46.592943 7.035329 1.663308 -1.367895 -0.274120 0.418920 -0.018420 -0.282360 
0.657970 16.129460 -2.090640 -1.123173 -10.565422 -10.033660 -15.380540 11.850827 4.155750 13.815129 -8.582757 -24.589830 -16.935300 21.835640 55.657601 1.126477 12.675965 0.452147 0.556050 0.189750 0.298780 18.446405 -7.756070 4.686219 -13.326213 9.974119 -49.023451 5.060520 -19.337294 72.520595 -2.374071 -12.161152 0.743467 -0.003710 0.228130 0.259190 -3.580184 -3.962364 -9.560351 14.449864 -11.709734 40.124063 -7.289623 -6.085637 -2.441418 4.428680 -5.547713 -14.268041 -17.515226 11.743921 48.629397 -11.087710 7.363670 -16.186870 -33.651440 -21.809387 6.372491 -30.534347 -2.725972 -7.052098 -5.010431 -25.043220 -0.933111 -3.298456 2.764670 1.005340 0.047110 0.181880 0.380830 24.870028 24.779146 9.349651 44.896160 4.431814 -15.797925 30.700277 50.811097 8.169712 1.681287 -1.383664 -0.232730 0.412060 -0.070040 -0.279850 
0.639810 16.086650 -2.073800 -1.299881 -12.057093 -10.943914 -15.333346 11.781523 4.066246 14.286675 -7.140839 -24.564794 -15.768347 23.071570 57.910538 1.220815 13.112170 0.308560 0.554820 0.183880 0.311670 18.489941 -7.770940 4.770926 -14.506036 11.753600 -46.891991 6.397330 -22.157600 77.557118 -2.719750 -13.333142 0.459308 -0.000480 0.203530 0.235560 -3.733530 -3.638422 -9.576373 16.573448 -11.248222 38.651203 -8.134536 -5.348273 -1.063812 4.416585 -5.636940 -15.180093 -18.175261 12.430673 51.794956 -11.286480 6.880610 -15.023070 -33.544185 -22.759236 7.496486 -29.901057 0.069296 -7.160618 -5.133809 -25.785280 -0.883045 -3.258641 2.754295 1.017900 0.026180 0.183820 0.357160 24.720149 26.571469 9.505196 46.721096 8.574553 -15.167019 32.417951 55.139774 9.792836 1.683653 -1.403615 -0.239420 0.423480 -0.058120 -0.292290 
0.617630 16.062980 -2.050760 -1.474393 -13.153113 -11.918749 -15.265813 11.812228 3.930330 14.427441 -5.612873 -24.264890 -13.834088 23.572526 59.892965 1.255146 13.378280 0.221956 0.561460 0.160960 0.341730 18.528564 -7.952976 4.738571 -15.328565 13.093281 -43.601924 7.173501 -24.269388 81.243969 -2.970337 -14.171266 0.269918 -0.001730 0.186370 0.227560 -3.896340 -3.260553 -9.482034 19.051291 -10.591763 36.859432 -8.928974 -4.548190 0.973787 4.545333 -5.896946 -15.613346 -18.614911 12.913950 53.783421 -12.208350 6.486360 -14.120260 -32.644418 -22.939163 8.332580 -29.217624 3.069869 -8.202959 -7.192208 -30.608257 -0.481945 -3.210150 2.798789 1.033670 0.018880 0.172890 0.337040 23.514006 27.676698 9.661570 47.718114 12.882881 -13.846441 35.455753 60.624097 12.664402 1.680252 -1.446930 -0.251570 0.423760 -0.049710 -0.317170 
0.579940 16.033430 -2.007180 -1.281582 -13.538491 -12.405758 -15.154496 11.868343 3.739936 13.764068 -4.353809 -23.721114 -11.642454 23.158179 60.924574 1.251461 13.397033 0.247367 0.519760 0.103430 0.282650 18.597262 -8.329084 4.607462 -15.900503 13.555792 -40.105287 6.848017 -24.889064 83.420402 -3.050314 -14.569154 0.206232 -0.015470 0.267590 0.227620 -4.151785 -2.702515 -9.274305 21.248907 -9.542936 33.595630 -9.488608 -3.984139 3.578191 4.303075 -6.455757 -15.502919 -19.198568 13.384965 53.626592 -11.869880 6.015870 -11.383830 -30.530085 -22.202241 8.789147 -28.419142 5.015859 -8.787123 -10.963483 -36.260565 0.598292 -3.254580 2.842833 0.995020 0.076100 0.106640 0.354550 21.892909 27.536243 9.738765 48.525751 16.709490 -11.694063 39.708832 68.070491 17.370751 1.671844 -1.510579 -0.278140 0.441500 -0.018160 -0.301650 
0.524940 15.994150 -1.961600 -0.817684 -13.410839 -12.572477 -15.060745 11.951766 3.665285 13.106106 -3.532605 -23.376468 -10.310512 22.936206 61.482568 1.223912 13.470511 0.245360 0.391950 -0.059580 0.189440 18.631392 -8.787873 4.339846 -16.154790 13.263441 -35.815610 6.554032 -24.292963 82.875466 -2.924230 -14.419898 0.243615 -0.073140 0.376920 0.214020 -4.315392 -2.197446 -9.102511 21.981114 -7.560693 30.456795 -8.999079 -2.939212 5.440601 3.771727 -6.323479 -15.147408 -17.867858 12.559062 53.151092 -11.145230 5.708380 -8.255680 -28.019728 -21.101633 8.923405 -26.664837 5.920579 -8.513231 -15.804286 -41.457039 2.545591 -3.399257 2.839761 0.955360 0.157600 -0.007070 0.311820 20.446174 26.623906 9.695836 48.857196 20.008956 -8.690196 42.597258 74.907547 22.129974 1.660186 -1.506473 -0.345380 0.461250 0.086200 -0.314240 
0.463140 15.964000 -1.915660 -0.242993 -12.954437 -12.635497 -14.992638 12.063115 3.687386 12.616923 -3.150971 -23.109756 -9.804157 22.788340 61.477680 1.181270 13.469362 0.233812 0.335640 -0.149930 0.176760 18.632141 -9.294981 3.934007 -16.032564 12.179693 -30.966466 6.210007 -22.702785 79.873057 -2.693230 -13.801706 0.358385 -0.098630 0.404410 0.212480 -4.385649 -1.785720 -8.928848 21.503443 -5.363092 27.373858 -7.807938 -1.868979 7.360217 3.321307 -5.693048 -14.587372 -15.646507 11.298777 52.990361 -10.962000 5.811380 -6.842310 -24.903791 -19.735042 8.694216 -24.660300 5.086860 -7.433149 -20.880165 -44.958701 5.060352 -3.518145 2.855398 0.934690 0.196390 -0.072750 0.261660 18.226963 25.027909 9.327531 48.416422 23.108676 -4.824738 46.692785 81.583184 28.601574 1.704456 -1.486127 -0.379170 0.436720 0.140240 -0.347100 
0.381410 15.949480 -1.891780 0.857237 -12.934068 -12.369700 -15.016733 12.140993 3.881539 12.318813 -3.005005 -24.107869 -10.131701 23.563915 62.120791 1.251227 13.726118 0.164371 0.287050 -0.221710 0.163010 18.562143 -9.632698 3.537026 -15.635065 11.183741 -27.245004 5.061813 -20.293166 76.607835 -2.433595 -13.027347 0.539159 -0.131730 0.426590 0.214670 -4.223858 -1.633208 -8.902977 18.927543 -2.524451 24.754386 -5.318505 -0.215614 8.582815 2.892145 -4.583118 -14.529832 -13.044233 9.645685 54.207119 -11.022910 5.920670 -4.627240 -21.923283 -18.733136 8.579473 -22.204106 4.627682 -6.254617 -26.079477 -48.938723 8.350427 -3.607468 2.885283 0.908370 0.231290 -0.115030 0.236470 16.186809 23.844590 9.295086 46.893539 24.927093 -1.413657 50.096862 88.111138 35.335659 1.767550 -1.415086 -0.394100 0.409860 0.167140 -0.361770 
0.288780 15.964810 -1.870580 1.711182 -13.126308 -11.794845 -15.086483 12.160217 4.139494 12.884663 -2.858652 -25.532954 -11.173915 24.820808 62.517607 1.347003 14.045274 0.072801 0.253400 -0.271910 0.154960 18.469160 -9.866053 3.155580 -15.015590 10.171023 -24.121601 4.008484 -18.080718 72.942906 -2.195520 -12.230393 0.742084 -0.166170 0.436890 0.231640 -3.970944 -1.546546 -8.908745 15.992499 -0.020473 22.098438 -2.935399 1.303105 9.406955 2.648657 -3.083077 -14.748270 -9.931836 8.200023 56.439603 -11.302540 6.642550 -2.399870 -19.596441 -17.982797 8.558992 -19.253453 4.940630 -5.070593 -30.687088 -52.681145 11.934117 -3.664891 2.929736 0.895320 0.258400 -0.127450 0.226140 14.438048 22.407105 9.497486 45.528984 25.959124 4.297604 -116.010324 84.803227 -127.472976 2.264008 -0.396566 -0.392870 0.377550 0.179240 -0.369380 
